HIERARCHY
ROOT Hips
{
	OFFSET 0.000000 0.000000 0.000000
	CHANNELS 6 Xposition Yposition Zposition Zrotation Xrotation Yrotation
	JOINT Spine
	{
		OFFSET 0.000000 0.000000 0.072775
		CHANNELS 3 Zrotation Xrotation Yrotation
		JOINT Spine1
		{
			OFFSET 0.000000 0.000000 0.195886
			CHANNELS 3 Zrotation Xrotation Yrotation
			JOINT Neck
			{
				OFFSET 0.000000 -0.017735 0.195082
				CHANNELS 3 Zrotation Xrotation Yrotation
				JOINT Head
				{
					OFFSET 0.000000 0.017750 0.124250
					CHANNELS 3 Zrotation Xrotation Yrotation
					End Site
					{
						OFFSET 0.000000 0.000000 0.177500
					}
				}
			}
			JOINT LeftShoulder
			{
				OFFSET 0.035772 0.000787 0.183979
				CHANNELS 3 Zrotation Xrotation Yrotation
				JOINT LeftArm
				{
					OFFSET 0.089258 0.000000 0.000000
					CHANNELS 3 Zrotation Xrotation Yrotation
					JOINT LeftForeArm
					{
						OFFSET 0.285064 0.000000 0.000000
						CHANNELS 3 Zrotation Xrotation Yrotation
						JOINT LeftHand
						{
							OFFSET 0.227012 0.000000 0.000000
							CHANNELS 3 Zrotation Xrotation Yrotation
							JOINT LeftHandThumb1
							{
								OFFSET 0.022188 -0.044375 -0.013313
								CHANNELS 3 Zrotation Xrotation Yrotation
								JOINT LeftHandThumb2
								{
									OFFSET 0.026625 0.000000 0.000000
									CHANNELS 3 Zrotation Xrotation Yrotation
									JOINT LeftHandThumb3
									{
										OFFSET 0.026625 0.000000 0.000000
										CHANNELS 3 Zrotation Xrotation Yrotation
										End Site
										{
											OFFSET 0.023630 0.000000 0.000000
										}
									}
								}
							}
							JOINT LeftHandIndex1
							{
								OFFSET 0.079875 -0.031063 0.000000
								CHANNELS 3 Zrotation Xrotation Yrotation
								JOINT LeftHandIndex2
								{
									OFFSET 0.044375 0.000000 0.000000
									CHANNELS 3 Zrotation Xrotation Yrotation
									JOINT LeftHandIndex3
									{
										OFFSET 0.022188 0.000000 0.000000
										CHANNELS 3 Zrotation Xrotation Yrotation
										End Site
										{
											OFFSET 0.019691 0.000000 0.000000
										}
									}
								}
							}
							JOINT LeftHandMiddle1
							{
								OFFSET 0.079875 -0.010295 0.000000
								CHANNELS 3 Zrotation Xrotation Yrotation
								JOINT LeftHandMiddle2
								{
									OFFSET 0.048813 0.000000 0.000000
									CHANNELS 3 Zrotation Xrotation Yrotation
									JOINT LeftHandMiddle3
									{
										OFFSET 0.026625 0.000000 0.000000
										CHANNELS 3 Zrotation Xrotation Yrotation
										End Site
										{
											OFFSET 0.023630 0.000000 0.000000
										}
									}
								}
							}
							JOINT LeftHandRing1
							{
								OFFSET 0.075438 0.010295 0.000000
								CHANNELS 3 Zrotation Xrotation Yrotation
								JOINT LeftHandRing2
								{
									OFFSET 0.044375 0.000000 0.000000
									CHANNELS 3 Zrotation Xrotation Yrotation
									JOINT LeftHandRing3
									{
										OFFSET 0.022188 0.000000 0.000000
										CHANNELS 3 Zrotation Xrotation Yrotation
										End Site
										{
											OFFSET 0.019691 0.000000 0.000000
										}
									}
								}
							}
							JOINT LeftHandPinky1
							{
								OFFSET 0.071000 0.031063 0.000000
								CHANNELS 3 Zrotation Xrotation Yrotation
								JOINT LeftHandPinky2
								{
									OFFSET 0.035500 0.000000 0.000000
									CHANNELS 3 Zrotation Xrotation Yrotation
									JOINT LeftHandPinky3
									{
										OFFSET 0.017750 0.000000 0.000000
										CHANNELS 3 Zrotation Xrotation Yrotation
										End Site
										{
											OFFSET 0.015753 0.000000 0.000000
										}
									}
								}
							}
						}
					}
				}
			}
			JOINT RightShoulder
			{
				OFFSET -0.035163 0.000787 0.183979
				CHANNELS 3 Zrotation Xrotation Yrotation
				JOINT RightArm
				{
					OFFSET -0.089258 0.000000 0.000000
					CHANNELS 3 Zrotation Xrotation Yrotation
					JOINT RightForeArm
					{
						OFFSET -0.285064 0.000000 0.000000
						CHANNELS 3 Zrotation Xrotation Yrotation
						JOINT RightHand
						{
							OFFSET -0.227012 0.000000 0.000000
							CHANNELS 3 Zrotation Xrotation Yrotation
							JOINT RightHandThumb1
							{
								OFFSET -0.022188 -0.044375 -0.013313
								CHANNELS 3 Zrotation Xrotation Yrotation
								JOINT RightHandThumb2
								{
									OFFSET -0.026625 0.000000 0.000000
									CHANNELS 3 Zrotation Xrotation Yrotation
									JOINT RightHandThumb3
									{
										OFFSET -0.026625 0.000000 0.000000
										CHANNELS 3 Zrotation Xrotation Yrotation
										End Site
										{
											OFFSET -0.023630 0.000000 0.000000
										}
									}
								}
							}
							JOINT RightHandIndex1
							{
								OFFSET -0.079875 -0.031063 0.000000
								CHANNELS 3 Zrotation Xrotation Yrotation
								JOINT RightHandIndex2
								{
									OFFSET -0.044375 0.000000 0.000000
									CHANNELS 3 Zrotation Xrotation Yrotation
									JOINT RightHandIndex3
									{
										OFFSET -0.022188 0.000000 0.000000
										CHANNELS 3 Zrotation Xrotation Yrotation
										End Site
										{
											OFFSET -0.019691 0.000000 0.000000
										}
									}
								}
							}
							JOINT RightHandMiddle1
							{
								OFFSET -0.079875 -0.010295 0.000000
								CHANNELS 3 Zrotation Xrotation Yrotation
								JOINT RightHandMiddle2
								{
									OFFSET -0.048813 0.000000 0.000000
									CHANNELS 3 Zrotation Xrotation Yrotation
									JOINT RightHandMiddle3
									{
										OFFSET -0.026625 0.000000 0.000000
										CHANNELS 3 Zrotation Xrotation Yrotation
										End Site
										{
											OFFSET -0.023630 0.000000 0.000000
										}
									}
								}
							}
							JOINT RightHandRing1
							{
								OFFSET -0.075438 0.010295 0.000000
								CHANNELS 3 Zrotation Xrotation Yrotation
								JOINT RightHandRing2
								{
									OFFSET -0.044375 0.000000 0.000000
									CHANNELS 3 Zrotation Xrotation Yrotation
									JOINT RightHandRing3
									{
										OFFSET -0.022188 0.000000 0.000000
										CHANNELS 3 Zrotation Xrotation Yrotation
										End Site
										{
											OFFSET -0.019691 0.000000 0.000000
										}
									}
								}
							}
							JOINT RightHandPinky1
							{
								OFFSET -0.071000 0.031063 0.000000
								CHANNELS 3 Zrotation Xrotation Yrotation
								JOINT RightHandPinky2
								{
									OFFSET -0.035500 0.000000 0.000000
									CHANNELS 3 Zrotation Xrotation Yrotation
									JOINT RightHandPinky3
									{
										OFFSET -0.017750 0.000000 0.000000
										CHANNELS 3 Zrotation Xrotation Yrotation
										End Site
										{
											OFFSET -0.015753 0.000000 0.000000
										}
									}
								}
							}
						}
					}
				}
			}
		}
	}
	JOINT LeftUpLeg
	{
		OFFSET 0.088750 0.000000 0.000000
		CHANNELS 3 Zrotation Xrotation Yrotation
		JOINT LeftLeg
		{
			OFFSET 0.000000 0.000000 -0.379026
			CHANNELS 3 Zrotation Xrotation Yrotation
			JOINT LeftFoot
			{
				OFFSET 0.000000 0.000000 -0.385721
				CHANNELS 3 Zrotation Xrotation Yrotation
				JOINT LeftToeBase
				{
					OFFSET 0.000000 -0.133125 -0.057688
					CHANNELS 3 Zrotation Xrotation Yrotation
					End Site
					{
						OFFSET 0.000000 -0.035500 0.000000
					}
				}
			}
		}
	}
	JOINT RightUpLeg
	{
		OFFSET -0.088750 0.000000 0.000000
		CHANNELS 3 Zrotation Xrotation Yrotation
		JOINT RightLeg
		{
			OFFSET 0.000000 0.000000 -0.379026
			CHANNELS 3 Zrotation Xrotation Yrotation
			JOINT RightFoot
			{
				OFFSET 0.000000 0.000000 -0.385721
				CHANNELS 3 Zrotation Xrotation Yrotation
				JOINT RightToeBase
				{
					OFFSET 0.000000 -0.133125 -0.057688
					CHANNELS 3 Zrotation Xrotation Yrotation
					End Site
					{
						OFFSET 0.000000 -0.035500 0.000000
					}
				}
			}
		}
	}
}
MOTION
Frames: 4
Frame Time: 0.041667
3.238889 -1.549482 0.901877 184.555099 6.348725 -39.000985 6.819012 9.406123 2.832514 -0.090817 13.538060 20.169769 26.761726 10.118398 7.680801 26.604837 7.023405 18.674886 -3.366495 -0.258913 -12.229857 -32.414896 39.263363 7.771639 -8.424998 3.218257 -12.743467 -3.360611 21.753128 -58.281191 10.216379 -12.314618 -12.519659 6.177422 -0.000000 -0.000002 12.354847 -0.000000 -0.000001 -0.000008 -0.000006 -45.000001 0.000001 -0.000001 0.000000 0.000000 -0.000000 0.000000 13.134688 -2.219057 -35.728002 -0.000000 0.000000 0.000002 -0.000000 -0.000000 0.000002 26.462415 -2.252645 -26.189201 0.000001 -0.000000 0.000001 -0.000003 -0.000000 -0.000000 39.999995 -0.000004 -16.629503 -0.000001 0.000001 -0.000000 -0.000002 0.000001 -0.000000 22.586184 1.134049 11.950309 158.868247 -135.192967 109.559096 -105.634845 76.151548 259.262533 -102.493129 52.525295 84.381646 -139.424228 54.600320 65.023005 -45.000001 -0.000004 0.000007 -89.999975 -0.000012 0.000010 15.812871 0.000001 8.796588 -0.000001 0.000001 -0.000001 -0.000003 0.000001 0.000000 10.612455 -0.740146 0.840177 -0.000002 -0.000001 -10.130620 0.000001 0.000001 -5.065309 5.359331 -0.751247 -7.151033 0.000000 -0.000003 -20.261244 -0.000002 -0.000001 -10.130619 -0.000008 -0.000004 -15.349426 0.000000 -0.000005 -30.698849 -0.000003 0.000001 -15.349431 -76.411232 -38.955420 -109.114642 -132.531092 52.121556 160.411665 16.755893 -37.501884 -2.174271 0.727712 9.916322 -0.557532 -1.552003 -22.895697 47.473667 -28.103578 22.920546 4.655788 14.645290 -13.682649 -6.042536 2.312589 2.577445 2.194249 
3.236722 -1.548916 0.901988 184.690487 6.425967 -38.971014 6.928031 9.600223 3.025029 0.014186 13.328047 19.972747 26.863510 10.214760 7.453473 26.575127 7.498379 18.645680 -3.428879 -0.258903 -12.557818 -31.979810 38.914316 8.113883 -9.457283 3.641090 -13.880941 -3.230675 21.803468 -57.079573 10.216379 -12.314616 -12.519662 6.177423 -0.000001 -0.000001 12.354848 -0.000001 -0.000002 -0.000010 -0.000007 -45.000001 0.000001 -0.000001 -0.000002 -0.000001 -0.000001 -0.000001 13.135976 -2.196979 -35.819407 -0.000000 -0.000001 0.000004 -0.000001 0.000000 0.000002 26.461189 -2.230230 -26.374803 0.000002 0.000001 -0.000001 0.000000 0.000000 0.000000 39.999999 -0.000005 -16.909359 -0.000002 -0.000001 -0.000002 -0.000001 -0.000000 -0.000003 22.240020 1.162483 11.794909 158.868247 -135.192953 109.559096 -103.103550 73.519057 256.677061 -102.618640 52.667630 83.993036 -139.424214 54.600320 65.023012 -44.999994 -0.000002 0.000008 -89.999975 -0.000011 0.000012 15.812877 0.000003 8.796591 0.000001 0.000002 -0.000002 0.000001 -0.000001 -0.000001 10.612459 -0.740144 0.840181 -0.000001 -0.000002 -10.130622 0.000001 -0.000001 -5.065312 5.359346 -0.751247 -7.151031 -0.000004 -0.000004 -20.261246 0.000003 -0.000002 -10.130628 -0.000002 -0.000004 -15.349423 -0.000009 -0.000000 -30.698838 0.000000 -0.000003 -15.349423 -76.601876 -38.805658 -109.205695 -132.545490 51.976117 160.559115 16.889195 -37.661646 -2.064986 0.727712 9.916325 -0.557532 -1.515736 -22.804253 47.659981 -28.318448 22.965372 4.517534 13.216794 -12.825388 -7.777064 4.841396 1.544063 3.395092 
3.234325 -1.548462 0.901804 184.652061 6.540459 -38.809712 7.113832 9.752910 3.603212 0.191594 13.360727 19.118208 26.766024 10.445072 6.861159 26.155354 7.714721 19.518777 -3.187131 -0.558803 -13.256443 -31.006142 37.660464 9.062006 -12.165370 4.769712 -16.536842 -3.284079 21.569266 -54.172211 10.216381 -12.314617 -12.519662 6.177423 -0.000001 -0.000001 12.354844 -0.000000 -0.000002 -0.000007 -0.000007 -45.000005 0.000001 -0.000000 0.000000 -0.000002 0.000000 0.000000 13.133687 -2.236046 -35.657665 0.000000 -0.000001 -0.000002 0.000000 -0.000002 -0.000004 26.463378 -2.269896 -26.046394 0.000002 0.000000 -0.000005 0.000000 0.000000 -0.000002 39.999995 -0.000008 -16.414174 -0.000003 0.000000 -0.000002 -0.000003 0.000001 -0.000000 21.157532 1.166646 12.084596 159.230452 -135.123627 109.832358 -101.273448 70.860405 254.792229 -103.448303 52.428300 85.021662 -139.424214 54.600320 65.023012 -45.000001 -0.000007 0.000011 -89.999975 -0.000011 0.000007 15.812870 0.000002 8.796588 0.000002 0.000000 -0.000001 -0.000001 0.000000 0.000001 10.612452 -0.740147 0.840178 -0.000007 -0.000003 -10.130619 -0.000001 0.000001 -5.065311 5.359335 -0.751247 -7.151034 -0.000004 -0.000003 -20.261244 0.000004 -0.000004 -10.130621 -0.000003 -0.000003 -15.349424 -0.000008 -0.000007 -30.698845 -0.000003 -0.000001 -15.349426 -76.738084 -38.568309 -109.383383 -132.640593 51.610088 160.706961 17.113462 -37.909794 -1.893373 0.727712 9.916328 -0.557531 -1.493274 -22.973613 47.760815 -28.512674 23.150450 4.560191 13.175840 -12.472921 -8.546695 5.357075 1.270246 3.624465 
3.231063 -1.547544 0.901617 184.211718 6.576535 -38.532632 6.631852 10.499210 4.152302 0.304365 12.356838 18.429109 26.351548 11.526013 7.129591 26.193151 6.816885 19.141547 -1.738778 -0.586761 -12.947401 -28.493029 36.949841 8.916014 -16.259902 6.552024 -19.895371 -3.276278 21.223696 -50.963282 10.216380 -12.314618 -12.519662 6.177423 -0.000001 -0.000001 12.354848 -0.000000 -0.000004 -0.000007 -0.000008 -45.000001 -0.000001 0.000000 0.000002 0.000000 -0.000001 -0.000001 13.134171 -2.227843 -35.691618 0.000001 -0.000000 0.000003 0.000002 -0.000000 0.000003 26.462916 -2.261567 -26.115351 0.000002 -0.000000 -0.000001 -0.000001 -0.000000 -0.000001 39.999985 -0.000004 -16.518153 -0.000004 0.000000 -0.000001 -0.000003 0.000001 -0.000000 20.149154 1.310416 12.493649 159.511350 -135.070761 109.962029 -103.374906 67.963900 256.726785 -103.899096 51.891795 86.401299 -139.424228 54.600310 65.023032 -44.999998 -0.000001 0.000009 -89.999975 -0.000010 0.000007 15.812878 0.000002 8.796588 0.000000 0.000001 -0.000001 0.000001 0.000001 -0.000002 10.612464 -0.740146 0.840178 -0.000002 -0.000002 -10.130624 -0.000001 -0.000003 -5.065312 5.359346 -0.751248 -7.151032 -0.000006 -0.000001 -20.261244 0.000002 -0.000002 -10.130626 -0.000001 -0.000005 -15.349424 -0.000012 -0.000005 -30.698845 -0.000003 -0.000004 -15.349428 -76.465429 -38.373451 -109.386627 -133.388144 51.075311 161.435633 16.842985 -38.412929 -1.997619 0.727709 9.916328 -0.557530 -1.123238 -22.968895 48.044637 -28.732348 23.618500 4.653615 13.921201 -12.064167 -9.061400 5.252100 0.827197 3.438082 
